<mxfile host="63714797-8c09-409e-9856-7bc378d2d194" modified="2020-07-20T20:34:21.805Z" agent="5.0 (Macintosh; Intel Mac OS X 10_14_6) AppleWebKit/537.36 (KHTML, like Gecko) Code/1.47.1 Chrome/78.0.3904.130 Electron/7.3.2 Safari/537.36" etag="50FD4farsY5sWZVVD5kU" version="13.1.3">
    <diagram id="6hGFLwfOUW9BJ-s0fimq" name="Page-1">
        <mxGraphModel dx="526" dy="517" grid="1" gridSize="10" guides="1" tooltips="1" connect="1" arrows="1" fold="1" page="1" pageScale="1" pageWidth="850" pageHeight="1100" background="#ffffff" math="0" shadow="0">
            <root>
                <mxCell id="0"/>
                <mxCell id="1" value="Canvas" parent="0"/>
                <mxCell id="68" value="VPC" style="" parent="0"/>
                <mxCell id="110" value="&lt;font color=&quot;#000000&quot;&gt;VPC&lt;/font&gt;&lt;br&gt;&lt;font color=&quot;#00994d&quot;&gt;&lt;span style=&quot;font-size: 11px ; font-family: &amp;#34;menlo&amp;#34; , &amp;#34;monaco&amp;#34; , &amp;#34;courier new&amp;#34; , monospace&quot;&gt;primary_cidr:&amp;nbsp;&lt;/span&gt;&lt;span style=&quot;font-family: &amp;#34;menlo&amp;#34; , &amp;#34;monaco&amp;#34; , &amp;#34;courier new&amp;#34; , monospace&quot;&gt;&lt;font style=&quot;font-size: 8px&quot;&gt;172.20.0.0/16&lt;/font&gt;&lt;/span&gt;&lt;/font&gt;" style="points=[[0,0],[0.25,0],[0.5,0],[0.75,0],[1,0],[1,0.25],[1,0.5],[1,0.75],[1,1],[0.75,1],[0.5,1],[0.25,1],[0,1],[0,0.75],[0,0.5],[0,0.25]];outlineConnect=0;gradientColor=none;html=1;whiteSpace=wrap;fontSize=12;fontStyle=0;shape=mxgraph.aws4.group;grIcon=mxgraph.aws4.group_vpc;strokeColor=#248814;fillColor=none;verticalAlign=top;align=left;spacingLeft=30;fontColor=#AAB7B8;dashed=0;" parent="68" vertex="1">
                    <mxGeometry x="280" y="180" width="340" height="370" as="geometry"/>
                </mxCell>
                <mxCell id="125" value="&lt;font style=&quot;font-size: 8px&quot;&gt;Public Subnet&lt;br&gt;Route Table&lt;/font&gt;" style="outlineConnect=0;dashed=0;verticalLabelPosition=bottom;verticalAlign=top;align=center;html=1;shape=mxgraph.aws3.route_table;fillColor=#F58536;gradientColor=none;labelBackgroundColor=#ffffff;fontColor=#000000;" parent="68" vertex="1">
                    <mxGeometry x="550" y="230" width="40" height="30" as="geometry"/>
                </mxCell>
                <mxCell id="180" style="edgeStyle=none;rounded=1;orthogonalLoop=1;jettySize=auto;html=1;exitX=0.5;exitY=0;exitDx=0;exitDy=0;exitPerimeter=0;entryX=0.6;entryY=1;entryDx=0;entryDy=0;entryPerimeter=0;strokeColor=#007FFF;strokeWidth=2;fontSize=15;fontColor=#000000;" parent="68" source="166" target="177" edge="1">
                    <mxGeometry relative="1" as="geometry"/>
                </mxCell>
                <mxCell id="166" value="&lt;font color=&quot;#000000&quot;&gt;Internet Gateway&lt;/font&gt;" style="outlineConnect=0;dashed=0;verticalLabelPosition=bottom;verticalAlign=top;align=center;html=1;shape=mxgraph.aws3.internet_gateway;fillColor=#F58534;gradientColor=none;fontSize=12;opacity=70;labelBackgroundColor=#ffffff;" parent="68" vertex="1">
                    <mxGeometry x="510" y="170" width="30" height="30" as="geometry"/>
                </mxCell>
                <mxCell id="177" value="Internet" style="outlineConnect=0;dashed=0;verticalLabelPosition=bottom;verticalAlign=top;align=center;html=1;shape=mxgraph.aws3.internet;fillColor=#f8cecc;labelBackgroundColor=#ffffff;strokeColor=#b85450;strokeWidth=3;fontSize=15;opacity=70;fontColor=#000000;" parent="68" vertex="1">
                    <mxGeometry x="440" y="70" width="140" height="49.5" as="geometry"/>
                </mxCell>
                <mxCell id="69" value="Region" parent="0"/>
                <mxCell id="111" value="&lt;b&gt;us-west-1&lt;/b&gt;" style="points=[[0,0],[0.25,0],[0.5,0],[0.75,0],[1,0],[1,0.25],[1,0.5],[1,0.75],[1,1],[0.75,1],[0.5,1],[0.25,1],[0,1],[0,0.75],[0,0.5],[0,0.25]];outlineConnect=0;gradientColor=none;html=1;whiteSpace=wrap;fontSize=12;fontStyle=0;shape=mxgraph.aws4.group;grIcon=mxgraph.aws4.group_region;strokeColor=#147EBA;fillColor=none;verticalAlign=top;align=left;spacingLeft=30;fontColor=#147EBA;dashed=0;" parent="69" vertex="1">
                    <mxGeometry x="310" y="260" width="290" height="270" as="geometry"/>
                </mxCell>
                <mxCell id="182" style="edgeStyle=none;rounded=1;orthogonalLoop=1;jettySize=auto;html=1;exitX=1;exitY=1;exitDx=0;exitDy=0;strokeColor=#007FFF;strokeWidth=2;fontSize=15;fontColor=#000000;" parent="69" source="110" target="110" edge="1">
                    <mxGeometry relative="1" as="geometry"/>
                </mxCell>
                <mxCell id="70" value="AZ" parent="0"/>
                <mxCell id="71" value="Public Subnet" parent="0"/>
                <mxCell id="118" value="Public subnet: &lt;font size=&quot;1&quot;&gt;&lt;i style=&quot;background-color: rgb(255 , 255 , 255) ; font-size: 9px&quot;&gt;172.20.10.0/24&amp;nbsp;&lt;/i&gt;&lt;/font&gt;" style="points=[[0,0],[0.25,0],[0.5,0],[0.75,0],[1,0],[1,0.25],[1,0.5],[1,0.75],[1,1],[0.75,1],[0.5,1],[0.25,1],[0,1],[0,0.75],[0,0.5],[0,0.25]];outlineConnect=0;gradientColor=none;html=1;whiteSpace=wrap;fontSize=12;fontStyle=0;shape=mxgraph.aws4.group;grIcon=mxgraph.aws4.group_security_group;grStroke=0;strokeColor=#248814;fillColor=#E9F3E6;verticalAlign=top;align=left;spacingLeft=30;fontColor=#248814;dashed=0;" parent="71" vertex="1">
                    <mxGeometry x="340" y="300" width="220" height="100" as="geometry"/>
                </mxCell>
                <mxCell id="72" value="Private Subnet" parent="0"/>
                <mxCell id="173" style="edgeStyle=orthogonalEdgeStyle;rounded=0;orthogonalLoop=1;jettySize=auto;html=1;strokeColor=#007FFF;strokeWidth=2;fontSize=15;fontColor=#000000;" parent="72" source="133" target="166" edge="1">
                    <mxGeometry relative="1" as="geometry"/>
                </mxCell>
                <mxCell id="133" value="&lt;font style=&quot;font-size: 8px&quot;&gt;NAT gateway&lt;/font&gt;" style="outlineConnect=0;fontColor=#232F3E;gradientColor=none;strokeColor=#232F3E;fillColor=#ffffff;dashed=0;verticalLabelPosition=bottom;verticalAlign=top;align=center;html=1;fontSize=12;fontStyle=0;aspect=fixed;shape=mxgraph.aws4.resourceIcon;resIcon=mxgraph.aws4.nat_gateway;labelBackgroundColor=#ffffff;opacity=70;labelPosition=center;" parent="72" vertex="1">
                    <mxGeometry x="520" y="300" width="40" height="40" as="geometry"/>
                </mxCell>
                <mxCell id="186" style="edgeStyle=orthogonalEdgeStyle;rounded=0;orthogonalLoop=1;jettySize=auto;html=1;exitX=0.75;exitY=0;exitDx=0;exitDy=0;entryX=0.75;entryY=1;entryDx=0;entryDy=0;strokeColor=#007FFF;" parent="72" source="112" target="118" edge="1">
                    <mxGeometry relative="1" as="geometry"/>
                </mxCell>
                <mxCell id="112" value="Private subnet:&amp;nbsp;&lt;i style=&quot;color: rgb(36 , 136 , 20) ; font-weight: 400 ; background-color: rgb(255 , 255 , 255) ; font-size: 9px&quot;&gt;172.20.20.0/24&amp;nbsp;&lt;/i&gt;" style="points=[[0,0],[0.25,0],[0.5,0],[0.75,0],[1,0],[1,0.25],[1,0.5],[1,0.75],[1,1],[0.75,1],[0.5,1],[0.25,1],[0,1],[0,0.75],[0,0.5],[0,0.25]];outlineConnect=0;gradientColor=none;html=1;whiteSpace=wrap;fontSize=12;fontStyle=1;shape=mxgraph.aws4.group;grIcon=mxgraph.aws4.group_security_group;grStroke=0;strokeColor=#147EBA;fillColor=#E6F2F8;verticalAlign=top;align=left;spacingLeft=30;fontColor=#147EBA;dashed=0;" parent="72" vertex="1">
                    <mxGeometry x="340" y="429.03" width="220" height="88.97" as="geometry"/>
                </mxCell>
                <mxCell id="129" value="Private Subnet&lt;br style=&quot;font-size: 6px;&quot;&gt;Route table" style="outlineConnect=0;fontColor=#232F3E;gradientColor=none;strokeColor=#232F3E;fillColor=#ffffff;dashed=0;verticalLabelPosition=middle;verticalAlign=middle;align=left;html=1;fontSize=6;fontStyle=0;aspect=fixed;shape=mxgraph.aws4.resourceIcon;resIcon=mxgraph.aws4.route_table;labelBackgroundColor=#ffffff;labelPosition=right;" parent="72" vertex="1">
                    <mxGeometry x="510.0020138888889" y="410" width="18.802083333333332" height="18.802083333333332" as="geometry"/>
                </mxCell>
                <mxCell id="184" value="" style="group" parent="72" vertex="1" connectable="0">
                    <mxGeometry x="492.00416666666666" y="369.9958823529412" width="42.115833333333285" height="17.79411764705884" as="geometry"/>
                </mxCell>
                <mxCell id="114" value="Elas" style="outlineConnect=0;dashed=0;verticalLabelPosition=bottom;verticalAlign=top;align=center;html=1;shape=mxgraph.aws3.elastic_ip;fillColor=#F58534;gradientColor=none;" parent="184" vertex="1">
                    <mxGeometry width="34.23958333333332" height="8.897058823529411" as="geometry"/>
                </mxCell>
                <mxCell id="115" value="&lt;font style=&quot;font-size: 8px&quot;&gt;Elastic IP&lt;/font&gt;" style="text;html=1;strokeColor=none;fillColor=none;align=center;verticalAlign=middle;whiteSpace=wrap;rounded=0;fontColor=#000000;" parent="184" vertex="1">
                    <mxGeometry x="1.2858333333333007" y="8.897058823529449" width="40.82999999999999" height="8.897058823529411" as="geometry"/>
                </mxCell>
                <mxCell id="185" style="edgeStyle=orthogonalEdgeStyle;rounded=0;orthogonalLoop=1;jettySize=auto;html=1;exitX=0.5;exitY=0.32;exitDx=0;exitDy=0;exitPerimeter=0;entryX=0.483;entryY=0.883;entryDx=0;entryDy=0;entryPerimeter=0;fillColor=#1ba1e2;strokeColor=#007FFF;" parent="72" source="114" target="133" edge="1">
                    <mxGeometry relative="1" as="geometry"/>
                </mxCell>
                <mxCell id="73" value="Workloads" parent="0"/>
                <mxCell id="165" value="" style="group" parent="73" vertex="1" connectable="0">
                    <mxGeometry x="360" y="320" width="90" height="63.43" as="geometry"/>
                </mxCell>
                <mxCell id="163" value="" style="group" parent="165" vertex="1" connectable="0">
                    <mxGeometry width="90" height="63.43" as="geometry"/>
                </mxCell>
                <mxCell id="140" value="" style="rounded=1;arcSize=10;dashed=0;fillColor=none;gradientColor=none;strokeWidth=3;labelBackgroundColor=#FF8000;fontSize=8;opacity=70;fontColor=#FF8000;labelBorderColor=#FF8000;strokeColor=#FF8000;" parent="163" vertex="1">
                    <mxGeometry y="4.422737300830723" width="90" height="59.007262699169274" as="geometry"/>
                </mxCell>
                <mxCell id="103" value="" style="group" parent="163" vertex="1" connectable="0">
                    <mxGeometry x="23.61917098445595" y="31.823347974621754" width="63.76943005181347" height="22.11183155546259" as="geometry"/>
                </mxCell>
                <mxCell id="104" value="" style="shape=mxgraph.mockup.containers.marginRect;rectMarginTop=10;strokeColor=#666666;strokeWidth=1;dashed=0;rounded=1;arcSize=5;recursiveResize=0;" parent="103" vertex="1">
                    <mxGeometry width="63.76943005181347" height="22.11183155546259" as="geometry"/>
                </mxCell>
                <mxCell id="105" value="Concourse CI" style="shape=rect;strokeColor=none;fillColor=#008cff;strokeWidth=1;dashed=0;rounded=1;arcSize=20;fontColor=#ffffff;fontSize=6;spacing=2;spacingTop=-2;align=left;autosize=1;spacingLeft=4;resizeWidth=0;resizeHeight=0;perimeter=none;" parent="104" vertex="1">
                    <mxGeometry x="0.7694300518134713" y="5.286182190161019" width="60" height="10" as="geometry"/>
                </mxCell>
                <mxCell id="106" value="" style="aspect=fixed;html=1;points=[];align=center;image;fontSize=12;image=img/lib/mscae/Docker.svg;labelBackgroundColor=#99FFFF;" parent="104" vertex="1">
                    <mxGeometry x="23.277202072538863" y="14.337311580561947" width="7.1969737489230505" height="5.9012499303203" as="geometry"/>
                </mxCell>
                <mxCell id="107" style="edgeStyle=orthogonalEdgeStyle;rounded=1;orthogonalLoop=1;jettySize=auto;html=1;entryX=0.005;entryY=0.664;entryDx=0;entryDy=0;entryPerimeter=0;fontSize=12;strokeWidth=1;strokeColor=#007FFF;exitX=0.185;exitY=1.089;exitDx=0;exitDy=0;exitPerimeter=0;" parent="163" source="108" target="104" edge="1">
                    <mxGeometry relative="1" as="geometry">
                        <mxPoint x="14.605106665760896" y="28.468983127658092" as="sourcePoint"/>
                        <Array as="points">
                            <mxPoint x="15.3" y="46"/>
                        </Array>
                    </mxGeometry>
                </mxCell>
                <mxCell id="108" value="&lt;font style=&quot;font-size: 5px;&quot;&gt;$ docker-compose.yml&lt;/font&gt;" style="html=1;whiteSpace=wrap;container=1;recursiveResize=0;collapsible=0;fontSize=5;align=left;" parent="163" vertex="1">
                    <mxGeometry x="5.355" y="23.944976167778833" width="52.245" height="7.964382405011576" as="geometry"/>
                </mxCell>
                <mxCell id="109" value="" style="outlineConnect=0;dashed=0;verticalLabelPosition=bottom;verticalAlign=top;align=center;html=1;shape=mxgraph.aws3.ec2;fillColor=#F58534;gradientColor=none;" parent="163" vertex="1">
                    <mxGeometry x="78.34196891191709" width="11.658031088082902" height="16.300842222687024" as="geometry"/>
                </mxCell>
                <mxCell id="142" value="" style="outlineConnect=0;fontColor=#5F80A8;gradientColor=none;fillColor=#D86613;strokeColor=none;dashed=0;verticalLabelPosition=bottom;verticalAlign=top;align=center;html=1;fontSize=12;fontStyle=0;aspect=fixed;pointerEvents=1;shape=mxgraph.aws4.t2_instance;labelBackgroundColor=#99FFFF;opacity=70;" parent="163" vertex="1">
                    <mxGeometry y="4.170291431360249" width="16.112627796096383" height="16.112627796096383" as="geometry"/>
                </mxCell>
            </root>
        </mxGraphModel>
    </diagram>
</mxfile>